<?xml version="1.0" encoding="utf-8"?>
<!-- Generator: Adobe Illustrator 27.9.2, SVG Export Plug-In . SVG Version: 6.00 Build 0)  -->
<svg version="1.1" id="Layer_1" xmlns="http://www.w3.org/2000/svg" xmlns:xlink="http://www.w3.org/1999/xlink" x="0px"
	y="0px" viewBox="0 0 449.5 151.3" style="enable-background:new 0 0 449.5 151.3;" xml:space="preserve">
	<path d="M17.1,46.9c0.2,0,0.3,0,0.3,0.2s-0.1,0.2-0.4,0.3c-1.2,0.2-1.9,0.6-2.2,1.3c-0.3,0.7-0.2,1.4,0.1,2.1
	c3.7,9.7,7.5,19.8,11.2,29.7c3.3-9.4,6.6-19.8,9.8-31.5c0.2-0.6,0.3-1.2,0.3-1.8s-0.2-1-0.5-1.3c-0.2-0.2-0.5-0.3-0.8-0.4
	s-0.7-0.1-1.1,0c-0.2,0-0.3,0-0.3-0.2s0.1-0.3,0.3-0.3c5.4-0.6,10.8-1.2,16.3-1.7c0.2,0,0.3,0.1,0.3,0.2s-0.1,0.3-0.3,0.3
	c-1.2,0.2-2,0.7-2.5,1.5s-0.7,1.8-0.6,2.7V94c0,0.8,0.2,1.5,0.6,2.2c0.5,0.7,1.3,1.1,2.5,1.2c0.2,0,0.3,0.1,0.3,0.2
	s-0.1,0.2-0.3,0.2c-5.4-0.4-10.8-0.8-16.3-1.4c-0.2,0-0.3-0.1-0.3-0.2c0-0.1,0.1-0.2,0.3-0.2c1.2,0.1,2-0.2,2.5-0.8
	c0.5-0.6,0.7-1.3,0.6-2V52.4C32.6,67.5,28.3,80.4,24,92c-0.2,0.4-0.5,0.7-0.9,0.8c-0.4,0.1-0.9,0.2-1.3,0.1
	c-0.5-0.1-0.9-0.2-1.3-0.5s-0.7-0.5-0.8-0.9c-4.8-12.2-9.5-24.8-14.3-36.3c0,11.7,0,23.2,0,34.5c-0.1,0.7,0.2,1.4,0.6,2
	c0.4,0.7,1.3,1.1,2.5,1.3c0.2,0,0.3,0.1,0.3,0.2c0,0.1-0.1,0.2-0.3,0.2c-2.7-0.4-5.4-0.8-8.1-1.2C0.1,92.2,0,92.1,0,92
	s0.1-0.2,0.3-0.2c1.2,0.2,2,0,2.5-0.6c0.5-0.5,0.7-1.1,0.6-1.8c0-12.4,0-25,0-37.8c0-0.7-0.2-1.3-0.6-1.9C2.3,49.2,1.5,49,0.3,49
	c-0.2,0-0.3,0-0.3-0.2c0-0.1,0.1-0.2,0.3-0.2C5.9,48,11.5,47.5,17.1,46.9z" />
	<path d="M70.9,71.3c0.8,0,1.6,0,2.4,0c1.4,0,2.5-0.3,3.4-0.8s1.7-1.1,2.2-1.8s0.9-1.5,1.2-2.4s0.3-1.7,0.3-2.6
	c0-0.4,0.2-0.6,0.6-0.6c0.4,0,0.6,0.1,0.6,0.5c0,5.6,0,11,0,16.2c0,0.4-0.2,0.6-0.6,0.6s-0.6-0.2-0.6-0.6c0-1-0.1-1.9-0.4-2.8
	c-0.2-0.9-0.7-1.6-1.2-2.2c-0.6-0.6-1.3-1.1-2.2-1.4c-0.9-0.3-2.1-0.5-3.5-0.4c-0.7,0-1.5,0.1-2.2,0.1c0,8.8,0.1,17,0.1,24.7
	c2.1,0.1,4.2,0.2,6.3,0.3c1.7,0.1,3.3-0.2,4.8-0.8s2.8-1.4,4-2.4s2.3-2.1,3.2-3.4s1.6-2.5,2.2-3.8c0.1-0.3,0.4-0.5,0.8-0.5
	c0.4,0,0.5,0.2,0.5,0.5c-0.6,3.4-1.3,6.6-1.9,9.8c-0.1,0.5-0.2,0.9-0.4,1.2s-0.4,0.5-0.7,0.6c-0.3,0.1-0.6,0.2-1,0.2
	c-0.4,0-0.8,0-1.4,0c-9.8-0.2-19.7-0.6-29.5-1.2c-0.2,0-0.3-0.1-0.3-0.2s0.1-0.2,0.3-0.2c1.2,0,2-0.3,2.5-0.9
	c0.5-0.6,0.7-1.4,0.6-2.2c0-14.2,0-30.1,0-47.9c0-1-0.2-1.8-0.6-2.7c-0.5-0.8-1.3-1.2-2.5-1.1c-0.2,0-0.3-0.1-0.3-0.3
	c0-0.2,0.1-0.3,0.3-0.3c4.8-0.5,9.7-1,14.4-1.6s9.6-1.1,14.4-1.6c1.1-0.1,1.8,0,2.4,0.2s0.9,1,1.2,2.3c0.6,4,1.3,7.9,1.9,11.7
	c0.1,0.4-0.1,0.5-0.4,0.5c-0.4,0-0.6-0.2-0.8-0.5c-0.6-1.4-1.3-2.8-2.2-4.2s-2-2.7-3.2-3.8c-1.2-1.1-2.5-2-4-2.7s-3-0.9-4.7-0.7
	c-1.9,0.2-3.9,0.4-5.8,0.6C70.9,52.8,70.9,62.3,70.9,71.3L70.9,71.3z" />
	<path d="M121.3,35.6c2.9-0.3,5.5,0.4,7.7,2.2c2.2,1.8,4,4.2,5.5,7.3s2.6,6.7,3.3,10.7s1.1,8,1,12.1c-0.1,4.1-0.5,8.1-1.3,11.9
	c-0.8,3.9-2.1,7.3-3.7,10.2c-1.6,2.9-3.7,5.2-6.2,7s-5.3,2.6-8.7,2.6c-6.8,0.1-13.6,0.1-20.4,0c-0.2,0-0.3-0.1-0.3-0.3
	c0-0.2,0.1-0.2,0.3-0.2c1.2,0,2-0.4,2.5-1.1c0.4-0.7,0.7-1.6,0.6-2.4c0-15.7,0-33.3,0-52.7c0-1-0.2-2-0.6-2.9
	c-0.5-0.9-1.3-1.3-2.5-1.2c-0.2,0-0.3-0.1-0.3-0.3s0.1-0.3,0.3-0.4C106.1,37.3,113.7,36.5,121.3,35.6L121.3,35.6z M115.2,98.1
	c2.1,0,3.9-0.8,5.5-2.4c1.6-1.6,2.8-3.7,3.9-6.4c1-2.7,1.8-5.8,2.3-9.3c0.5-3.5,0.8-7.2,0.8-11s-0.2-7.6-0.6-11.3
	c-0.5-3.7-1.2-7.1-2.1-10s-2.1-5.3-3.5-7c-1.4-1.7-3-2.5-4.8-2.3c-1.6,0.2-3.3,0.3-4.9,0.5c0,21.9,0.1,41.7,0.1,59.3
	C113,98.1,114.1,98,115.2,98.1L115.2,98.1z" />
	<path d="M159.2,94c-0.1,1,0.1,2,0.6,2.8c0.4,0.8,1.2,1.3,2.4,1.3c0.2,0,0.3,0.1,0.3,0.3c0,0.2-0.1,0.3-0.3,0.3
	c-5.4,0.2-10.8,0.4-16.2,0.5c-0.2,0-0.3-0.1-0.3-0.3s0.1-0.3,0.3-0.3c1.2-0.1,2-0.5,2.5-1.4c0.4-0.9,0.7-1.8,0.6-2.8
	c0-17.7,0-36.6,0-56.6c0-1.1-0.2-2.1-0.6-3c-0.5-0.9-1.3-1.3-2.5-1.2c-0.2,0-0.3-0.1-0.3-0.3c0-0.2,0.1-0.3,0.3-0.4
	c5.4-0.6,10.8-1.2,16.2-1.8c0.2,0,0.3,0.1,0.3,0.3c0,0.2-0.1,0.4-0.3,0.4c-1.2,0.2-2,0.8-2.4,1.8c-0.4,1-0.6,2-0.6,3.1V94L159.2,94z
	" />
	<path d="M211.2,95.7c0.2,0,0.3,0.1,0.3,0.3c0,0.2-0.1,0.3-0.3,0.4c-5.6,0.3-11.3,0.6-16.9,0.8c-0.2,0-0.3-0.1-0.3-0.3
	s0.1-0.3,0.4-0.3c1.2-0.1,1.9-0.6,2.2-1.6c0.3-1,0.2-2-0.1-3.1c-0.8-3.6-1.7-7.1-2.5-10.7c-5.2,0.4-10.4,0.9-15.6,1.3
	c-0.8,3.6-1.6,7.1-2.3,10.6c-0.3,1.1-0.3,2.1-0.2,3s0.8,1.3,2,1.3c0.2,0,0.3,0.1,0.3,0.3c0,0.2-0.1,0.3-0.3,0.3
	c-2.7,0.1-5.3,0.2-8,0.3c-0.2,0-0.3-0.1-0.3-0.3c0-0.2,0.1-0.3,0.3-0.3c1.2-0.1,2.1-0.6,2.8-1.5c0.7-0.9,1.1-1.9,1.4-3
	c1.1-4.8,2.3-9.8,3.4-15.1s2.3-10.7,3.4-16.2s2.3-11,3.4-16.5s2.3-10.8,3.4-15.9c0.2-0.6,0.5-1.1,0.9-1.5c0.4-0.3,0.9-0.5,1.3-0.5
	c0.5,0,0.9,0.1,1.4,0.3c0.4,0.2,0.7,0.6,0.9,1.1c1.3,4.8,2.6,9.8,3.9,15c1.2,5.2,2.5,10.5,3.8,15.8c1.3,5.3,2.5,10.7,3.8,16
	c1.2,5.3,2.5,10.5,3.9,15.5c0.2,1.1,0.6,2.2,1.2,3.1C209.2,95.3,210.1,95.7,211.2,95.7L211.2,95.7z M193.4,79
	c-2.5-10.6-5.1-21-7.6-31.5c-2.4,11.1-4.7,22.1-7,32.8C183.7,79.9,188.5,79.5,193.4,79z" />
	<path d="M260.5,90.1c0-0.4,0.1-0.7,0.3-0.8c0.2-0.2,0.4-0.2,0.6-0.2c0.2,0.1,0.4,0.2,0.5,0.5c0.1,0.3,0.1,0.6-0.1,1.1
	c-0.5,1.2-1.3,2.2-2.2,2.8c-0.9,0.7-1.9,1.2-2.9,1.5c-1.1,0.3-2.1,0.4-3.2,0.3c-1.1-0.1-2.1-0.3-2.9-0.6c-1.6-0.6-2.9-1.8-3.8-3.7
	s-1.6-4-2.2-6.4c-0.6-2.4-1-4.9-1.3-7.5s-0.8-4.9-1.3-7c-0.5-2.1-1.2-3.8-2.1-5.1c-0.9-1.3-2.1-1.8-3.7-1.7
	c-0.9,0.1-1.8,0.2-2.7,0.2c-0.9,0.1-1.8,0.2-2.7,0.2c0,8.4,0.1,17.1,0.1,25.9c-0.1,1.2,0.1,2.3,0.6,3.3c0.4,1,1.2,1.5,2.4,1.5
	c0.2,0,0.3,0.1,0.3,0.3s-0.1,0.4-0.3,0.4c-5.4,0.3-10.8,0.5-16.3,0.8c-0.2,0-0.3-0.1-0.3-0.3s0.1-0.3,0.3-0.4c1.2-0.1,2-0.7,2.5-1.7
	c0.4-1,0.7-2.1,0.6-3.3c0-21,0-41.2,0-60.6c0-1-0.2-2-0.6-2.9c-0.5-0.9-1.3-1.3-2.5-1.2c-0.2,0-0.3-0.1-0.3-0.3
	c0-0.2,0.1-0.3,0.3-0.4c7.4-0.8,14.9-1.6,22.3-2.5c3.3-0.4,6.2,0.1,8.5,1.3c2.4,1.2,4.2,3,5.6,5.2c1.4,2.3,2.2,4.9,2.6,7.8
	c0.4,3,0.2,6-0.5,9c-0.7,3-2,5.9-3.8,8.6c-1.8,2.7-4.2,4.8-7.1,6.3c1.4,0.3,2.6,0.9,3.7,1.8c1,0.8,1.8,2.1,2.5,3.9s1.2,3.8,1.6,6
	c0.4,2.2,0.9,4.4,1.3,6.8c0.4,2.3,0.9,4.4,1.4,6.2c0.5,1.8,1.2,3.3,2,4.3c0.8,1,1.8,1.3,3,0.8C260.5,90.4,260.5,90.2,260.5,90.1
	L260.5,90.1z M233.6,61.5c2.8-0.3,5.1-1.5,6.9-3.5s3.2-4.5,4.1-7.3s1.4-5.8,1.4-9s-0.3-6-1.2-8.5c-0.8-2.5-2.1-4.6-3.7-6.1
	s-3.7-2.2-6.1-1.9c-1.5,0.2-3,0.3-4.5,0.5v36.1C231.6,61.7,232.6,61.6,233.6,61.5L233.6,61.5z" />
	<path d="M307.8,92c0.2,0,0.3,0.1,0.3,0.4c0,0.3-0.1,0.4-0.3,0.4c-5.6,0.1-11.3,0.2-16.9,0.3c-0.2,0-0.3-0.1-0.3-0.4
	c0-0.3,0.1-0.4,0.4-0.4c1.2-0.1,1.9-0.7,2.2-1.9c0.3-1.2,0.2-2.4-0.1-3.8c-0.8-4.4-1.7-8.7-2.5-12.9c-5.2,0.3-10.4,0.6-15.6,1
	c-0.8,4.2-1.5,8.4-2.3,12.7c-0.3,1.3-0.3,2.6-0.2,3.7c0.2,1.1,0.8,1.7,2,1.7c0.2,0,0.3,0.1,0.3,0.4c0,0.3-0.1,0.4-0.3,0.4
	c-2.7,0.1-5.3,0.2-8,0.3c-0.2,0-0.3-0.1-0.3-0.4c0-0.3,0.1-0.4,0.3-0.4c1.2-0.1,2.1-0.7,2.8-1.9c0.7-1.2,1.1-2.4,1.4-3.7
	c1.1-5.9,2.3-11.9,3.4-18s2.3-12.2,3.5-18.1c1.2-5.9,2.3-11.7,3.5-17.2s2.3-10.6,3.4-15.4c0.2-0.6,0.5-1.1,0.9-1.4s0.9-0.5,1.3-0.5
	c0.5,0,0.9,0.1,1.4,0.3c0.4,0.2,0.7,0.6,0.9,1c1.3,4.5,2.6,9.4,3.9,14.7s2.5,10.9,3.8,16.7c1.3,5.8,2.5,11.8,3.8,18.1
	s2.5,12.4,3.9,18.6c0.2,1.4,0.6,2.7,1.2,3.9S306.7,91.9,307.8,92L307.8,92z M290.1,71.1c-2.5-12.4-5.1-24-7.6-34.7
	c-2.4,11.2-4.7,23.2-7,35.7C280.3,71.7,285.2,71.4,290.1,71.1z" />
	<path
		d="M328.7,33.6c5.6-0.5,11.2-0.9,16.7-1.2c0-5.6,0-10.9,0-16.1c0-1.1-0.2-2.1-0.6-3c-0.5-0.9-1.3-1.3-2.5-1.2
	c-0.2,0-0.3-0.1-0.3-0.3c0-0.2,0.1-0.3,0.3-0.4c5.4-0.6,10.8-1.2,16.3-1.8c0.2,0,0.3,0.1,0.3,0.3c0,0.2-0.1,0.4-0.3,0.4
	c-1.2,0.2-2,0.8-2.5,1.8c-0.5,1-0.7,2.1-0.6,3.2v71c0,1.5,0.2,2.9,0.6,4.2c0.5,1.3,1.3,2,2.5,2.2c0.2,0,0.3,0.2,0.3,0.5
	s-0.1,0.4-0.3,0.4c-5.4-0.2-10.8-0.4-16.3-0.5c-0.2,0-0.3-0.2-0.3-0.4c0-0.3,0.1-0.4,0.3-0.4c1.2,0,2-0.7,2.5-2
	c0.5-1.3,0.7-2.7,0.6-4.1c0-18.6,0-35.7,0-51.2c-5.6,0.4-11.2,0.8-16.7,1.2v49.9c0,1.4,0.1,2.8,0.6,4.1s1.2,1.9,2.4,2
	c0.2,0,0.3,0.2,0.3,0.4s-0.1,0.4-0.3,0.4c-5.4-0.1-10.8-0.1-16.2-0.1c-0.2,0-0.3-0.1-0.3-0.4s0.1-0.4,0.3-0.4c1.2-0.1,2-0.7,2.5-1.9
	c0.5-1.2,0.7-2.6,0.6-4V19c0-1-0.2-2-0.6-2.9c-0.5-0.9-1.3-1.2-2.5-1.2c-0.2,0-0.3-0.1-0.3-0.3c0-0.2,0.1-0.3,0.3-0.4
	c5.4-0.6,10.8-1.2,16.2-1.8c0.2,0,0.3,0.1,0.3,0.3s-0.1,0.3-0.3,0.4c-1.2,0.2-2,0.7-2.4,1.7c-0.4,1-0.6,2-0.6,3V33.6L328.7,33.6z" />
	<path d="M407.5,96.4c0.2,0,0.3,0.2,0.3,0.5s-0.1,0.5-0.3,0.4c-5.6-0.7-11.3-1.2-16.9-1.8c-0.2,0-0.3-0.2-0.3-0.5s0.1-0.5,0.4-0.4
	c1.2,0,1.9-0.6,2.2-1.9c0.3-1.3,0.2-2.8-0.1-4.4c-0.8-5.2-1.7-10.3-2.5-15.3c-5.2-0.3-10.4-0.6-15.6-0.8c-0.8,4.8-1.5,9.7-2.3,14.6
	c-0.3,1.5-0.3,3-0.2,4.3c0.2,1.3,0.8,2.1,2,2.2c0.2,0,0.3,0.2,0.3,0.5c0,0.3-0.1,0.4-0.3,0.4c-2.7-0.2-5.3-0.3-8-0.5
	c-0.2,0-0.3-0.2-0.3-0.5c0-0.3,0.1-0.4,0.3-0.4c1.2,0,2.1-0.7,2.8-1.9s1.1-2.7,1.4-4.2c1.1-6.8,2.3-13.7,3.4-20.7
	c1.1-7,2.3-13.8,3.5-20.6s2.3-13.3,3.5-19.6c1.1-6.3,2.3-12.2,3.4-17.8c0.2-0.7,0.5-1.2,0.9-1.6s0.9-0.6,1.3-0.6
	c0.5,0,0.9,0.1,1.4,0.4c0.4,0.3,0.7,0.7,0.9,1.2c1.3,5.4,2.6,11.3,3.9,17.8s2.5,13.2,3.8,20.3c1.3,7.1,2.5,14.3,3.8,21.8
	s2.5,14.8,3.9,22c0.2,1.6,0.6,3.2,1.2,4.6S406.4,96.2,407.5,96.4L407.5,96.4z M389.8,70c-2.5-14.8-5.1-28.7-7.6-41.4
	c-2.4,12.9-4.7,26.5-7,40.7C380,69.5,384.9,69.7,389.8,70L389.8,70z" />
	<path d="M430.9,1.9c0.2,0,0.3,0.1,0.3,0.4s-0.1,0.5-0.3,0.5c-0.6,0.1-1,0.3-1.3,0.7C429.2,4,429,4.4,428.9,5s-0.1,1.2,0,1.9
	c0.1,0.7,0.3,1.4,0.5,2.1c4.9,15.6,9.8,32.7,14.7,50.7V8c0-1.6-0.2-3-0.6-4.3c-0.5-1.3-1.3-2-2.5-1.9c-0.2,0-0.3-0.1-0.3-0.4
	s0.1-0.5,0.3-0.5c2.7-0.3,5.4-0.6,8.1-0.9c0.2,0,0.3,0.1,0.3,0.4c0,0.3-0.1,0.5-0.3,0.5c-1.2,0.2-2,1-2.5,2.4
	c-0.5,1.4-0.7,2.9-0.6,4.5v95.7c-0.4-0.1-0.7-0.2-1.1-0.3c-8.3-31.7-16.5-62.2-24.8-88.1v76.2c0,1.6,0.2,3.2,0.6,4.6
	c0.5,1.4,1.3,2.3,2.5,2.5c0.2,0,0.3,0.2,0.3,0.5s-0.1,0.5-0.3,0.4c-2.7-0.4-5.4-0.8-8.1-1.1c-0.2,0-0.3-0.2-0.3-0.5
	c0-0.3,0.1-0.5,0.3-0.4c1.2,0.1,2-0.5,2.5-1.9c0.5-1.3,0.7-2.8,0.6-4.4c0-28.8,0-55.9,0-81.2c0-1.4-0.2-2.6-0.6-3.8
	s-1.3-1.7-2.5-1.6c-0.2,0-0.3-0.1-0.3-0.4s0.1-0.4,0.3-0.4C420.4,3,425.7,2.5,430.9,1.9L430.9,1.9z" />
	<path
		d="M124.9,115.2c3.2,1.2,6.5,2.8,9.6,4.4c2.1-2.6,4.4-6.2,6.1-10c1.1,0.4,2.2,0.8,3.3,1.2c-0.1,0.3-0.6,0.4-1.2,0.3
	c-1.6,3.2-3.7,6.8-6,9.6c2.6,1.5,5.3,3.2,7.3,4.8c-0.5,0.6-1.1,1.1-1.6,1.7c-1.9-1.5-4.4-3.2-7.2-4.9c-3.5,3.9-8.5,7.5-14.2,9.6
	c-0.4-0.4-1.3-1.1-1.9-1.4c5.6-2.1,10.8-5.6,14.1-9.3c-3.1-1.7-6.3-3.2-9.5-4.5C124,116.2,124.4,115.7,124.9,115.2L124.9,115.2z" />
	<path d="M177.7,122.5c-3.7-0.1-7.4-0.3-11.1-0.4c0.2,0.1,0.4,0.1,0.6,0.2c0,0.2-0.3,0.3-0.7,0.4c-0.9,5.8-3.6,11.2-10.4,13.5
	c-0.4-0.4-1.2-1.2-1.8-1.6c6.6-2.2,8.9-6.8,9.7-12.5c-4.3-0.2-8.6-0.3-12.8-0.5c0-0.7,0-1.3,0-2c8.8,0.3,17.7,0.6,26.5,0.8
	L177.7,122.5L177.7,122.5z M172.8,113.3c-6.2,0-12.4-0.1-18.6-0.1v-2.1c6.2,0,12.4,0,18.6,0C172.8,111.8,172.8,112.6,172.8,113.3z
	 M173.2,108.4c1.4,1.4,2.9,3.7,3.7,5.3c-0.4,0.3-0.9,0.6-1.3,0.9c-0.7-1.6-2.3-3.9-3.7-5.3C172.3,109,172.8,108.7,173.2,108.4
	L173.2,108.4z M177.2,107.2c1.4,1.4,3,3.7,3.8,5.3c-0.5,0.3-0.9,0.6-1.4,0.8c-0.7-1.5-2.4-3.9-3.7-5.3
	C176.3,107.8,176.7,107.5,177.2,107.2z" />
	<path d="M203,117.5c-0.1,0.2-0.3,0.2-0.6,0.2c-0.2,0-0.3,0-0.5-0.1c-2.1,2.3-4.9,4.7-7.4,6.5c0.4,0.2,0.6,0.3,0.7,0.3
	c-0.1,0.1-0.3,0.3-0.6,0.4v15.5c-0.7-0.1-1.4-0.1-2.1-0.2c0-4.9,0-9.9,0-14.8c-2.9,2-7.4,4.5-11.1,6c-0.3-0.4-0.8-1.3-1.2-1.7
	c5.8-2.2,14.4-7.1,20.3-14C201.4,116.3,202.2,116.9,203,117.5L203,117.5z" />
	<path d="M235.3,112.1c-0.1,0.2-0.3,0.3-0.4,0.4c-1.8,5.2-4.7,9.7-8,12.8c-0.5-0.5-1.4-1.3-2.1-1.7c3.1-2.6,5.6-6.5,6.7-9.8
	c-8,0-16,0-24.1,0v-2.5c8.4-0.1,16.9-0.1,25.3-0.2c0.1-0.1,0.2-0.1,0.4-0.2C233.8,111.2,234.5,111.7,235.3,112.1L235.3,112.1z
	 M222.2,119.3c0,0.3-0.3,0.6-0.8,0.7c-1,9.3-3.7,18.1-10.6,22c-0.5-0.5-1.3-1.5-2-2c6.9-3.6,9.3-11.8,10.1-21.1
	C220,119,221.1,119.1,222.2,119.3L222.2,119.3z" />
	<path d="M264.2,122.5c-0.1,0.2-0.2,0.3-0.4,0.4c-2.8,13.6-8.4,20-18.4,22.6c-0.3-0.8-0.9-2-1.4-2.7c9.1-2.1,14.8-8.1,16.9-18.4
	c-7.4-0.3-14.8-0.5-22.2-0.8v-2.8c7.8,0.2,15.5,0.4,23.3,0.6c0.1-0.1,0.2-0.2,0.3-0.3C262.9,121.6,263.6,122.1,264.2,122.5z
	 M261.1,113c-6.4,0-12.8,0-19.2-0.1c0-0.9,0-1.8,0-2.7c6.4-0.1,12.8-0.1,19.2-0.1C261.1,111,261.1,112,261.1,113z" />
	<path d="M279.3,114.9c-0.1,0.4-0.4,0.6-0.9,0.7c-1.4,10.8-4,22.9-8,29.8c-0.6-0.7-1.6-1.4-2.2-1.8c4-6.6,6.6-18.1,7.8-29.7
	C277,114.2,278.1,114.6,279.3,114.9L279.3,114.9z M289.9,113.6c3.7,8.7,7.7,23.5,9.2,32.9c-0.8,0.4-1.6,0.8-2.5,1.3
	c-1.5-9.4-5.4-24.4-9-32.9C288.3,114.5,289.1,114.1,289.9,113.6L289.9,113.6z" />
	<path d="M304.6,112.2c3.5,1.7,7.5,4.3,10,7c-0.4,1-0.9,2.1-1.3,3.1c-2.4-2.7-6.4-5.4-9.8-7.2C303.9,114.1,304.2,113.1,304.6,112.2
	L304.6,112.2z M304.5,147c11.9-4.6,19.9-14.7,23.9-28.7c0.7,0.9,1.5,1.6,2.2,2.2c-4.2,13.9-12.4,24.8-23.8,29.6c0,0.5-0.2,1-0.5,1.2
	C305.7,149.9,305.1,148.4,304.5,147L304.5,147z" />
</svg>