<?xml version="1.0" encoding="UTF-8"?>
<svg id="Layer_1" xmlns="http://www.w3.org/2000/svg" viewBox="0 0 597.79 129.21">
    <defs>
        <style>
            .cls-1 {
                stroke-width: 0px;
            }
        </style>
    </defs>
    <path class="cls-1"
        d="m52.27,85.47l-24.39-37.42h-3.02v37.42H0V.97h30.18c7.81,0,14.83.52,21.07,1.57,6.24,1.05,11.59,3.3,16.06,6.76,4.47,3.46,6.7,8.53,6.7,15.21,0,11.91-7.16,19.28-21.49,22.09l27.28,38.87h-27.52ZM24.87,1.93v45.15h5.31c5.87,0,10.5-2.01,13.88-6.04,3.38-4.02,5.07-9.54,5.07-16.54s-1.45-12.92-4.35-16.78c-2.9-3.86-7.77-5.79-14.61-5.79h-5.31Z" />
    <path class="cls-1" d="m116.73,42.73v41.77h39.84v.97h-64.71V.97h63.5v.96h-38.63v39.84h32.59v.97h-32.59Z" />
    <path class="cls-1"
        d="m193.99,85.47V.97h28.85c13.6,0,24.39,1.83,32.35,5.49,7.97,3.66,11.95,10.44,11.95,20.34s-3.98,16.68-11.95,20.34c-7.97,3.66-18.75,5.49-32.35,5.49h-3.98v32.84h-24.87Zm28.85-33.8c6.68,0,11.59-1.95,14.73-5.85,3.14-3.9,4.71-10.24,4.71-19.01s-1.57-15.11-4.71-19.01c-3.14-3.9-8.05-5.86-14.73-5.86h-3.98v49.74h3.98Z" />
    <path class="cls-1"
        d="m344.89,85.47h-26.8l-11.95-24.39h-33.08l-12.07,24.39h-1.09L302.28,0h.24l42.37,85.47Zm-55.17-57.95l-16.18,32.59h32.11l-15.93-32.59Z" />
    <path class="cls-1" d="m385.69,85.47h-24.87V1.93h-29.21v-.96h83.3v.96h-29.21v83.54Z" />
    <path class="cls-1"
        d="m478.04,85.47l-24.39-37.42h-3.02v37.42h-24.87V.97h30.18c7.81,0,14.83.52,21.07,1.57,6.24,1.05,11.59,3.3,16.06,6.76,4.47,3.46,6.7,8.53,6.7,15.21,0,11.91-7.16,19.28-21.49,22.09l27.28,38.87h-27.52ZM450.64,1.93v45.15h5.31c5.87,0,10.5-2.01,13.88-6.04,3.38-4.02,5.07-9.54,5.07-16.54s-1.45-12.92-4.35-16.78c-2.9-3.86-7.77-5.79-14.61-5.79h-5.31Z" />
    <path class="cls-1"
        d="m597.79,85.47h-26.8l-11.95-24.39h-33.08l-12.07,24.39h-1.09L555.18,0h.24l42.37,85.47Zm-55.17-57.95l-16.18,32.59h32.11l-15.93-32.59Z" />
    <path class="cls-1"
        d="m502.3,120.31H95.49l-26.61-21.65h460.03l-26.61,21.65Zm-405.37-4.07h403.92l16.59-13.5H80.35l16.59,13.5Z" />
    <path class="cls-1"
        d="m502.3,129.21H95.49l-26.61-21.65h460.03l-26.61,21.65Zm-405.37-4.07h403.92l16.59-13.5H80.35l16.59,13.5Z" />
</svg>