<?xml version="1.0" encoding="UTF-8"?><svg id="Layer_1" xmlns="http://www.w3.org/2000/svg" viewBox="0 0 597.79 123.39"><defs><style>.cls-1{stroke-width:0px;}</style></defs><path class="cls-1" d="m149.28,87.31l-4.85,16.3h-23.93l26.49-83.82h31.8l27.54,83.82h-25.65l-5.09-16.3h-26.31Zm22-18.2c-3.94-13.17-7.16-24.88-9.06-33.05h-.34c-1.94,9.03-5.15,20.99-8.54,33.05h17.94Z"/><path class="cls-1" d="m285.61,76.26c0-13.1.29-29.98.65-39.94h-.65c-3.5,17.98-9.15,42.87-15.27,67.29h-19.67c-4.82-23.68-10.32-48.62-13.58-67.27h-.74c.69,9.86,1.14,26.22,1.14,40.58v26.69h-21.87V19.79h35.36c4.13,16.96,8.97,41.55,10.84,53.94h.42c2.15-13.48,7.74-35.72,12.62-53.94h34.35v83.82h-23.6v-27.35Z"/><path class="cls-1" d="m350.36,71.94v31.67h-23.85V19.79h41.54c19.74,0,29.29,10.57,29.29,23.21,0,11.58-6.77,17.5-12.58,19.88,5.28,1.85,10.93,7.44,10.93,21.63v3.49c0,5.21.16,11.98,1.09,15.61h-23.41c-1.42-3.61-1.78-9.69-1.78-18.3v-2.17c0-7.24-1.73-11.2-12.56-11.2h-8.66Zm0-17.12h11.36c8.18,0,11.16-3.4,11.16-9.04s-3.54-8.88-11.05-8.88h-11.48v17.92Z"/><path class="cls-1" d="m435.5,19.79v83.82h-24.63V19.79h24.63Z"/><path class="cls-1" d="m470.31,37.99h-23.96v-18.2h72.31v18.2h-23.75v65.62h-24.59V37.99Z"/><path class="cls-1" d="m540.75,87.31l-4.85,16.3h-23.93l26.49-83.82h31.8l27.54,83.82h-25.65l-5.09-16.3h-26.31Zm22-18.2c-3.94-13.17-7.16-24.88-9.06-33.05h-.34c-1.94,9.03-5.15,20.99-8.54,33.05h17.94Z"/><path class="cls-1" d="m51.91,33.95v25.11l.38.12c.28-.63.52-1.28.86-1.87,3.67-6.47,6.95-13.22,11.15-19.33,5.54-8.06,13.76-11.93,23.52-12.25,3.92-.13,7.86.15,12.21.26-3.65,13.35-10.78,22.75-23.52,27.06-7.72,2.62-15.28,5.47-22.25,9.78-1.54.95-2.22,1.93-2.19,3.81.12,7.38.05,14.76.52,22.26.31-.71.57-1.43.93-2.11,2.92-5.5,5.53-11.2,8.87-16.43,7.83-12.3,19.58-16.24,33.59-14.77,1.12.12,2.24.3,3.71.5-.23,1.05-.35,2.04-.65,2.96-3.71,11.38-10.92,19.33-22.28,23.67-7.38,2.82-14.47,6.39-21.68,9.65-2.18.99-3.05,2.51-2.95,5.11.25,6.59.08,13.19.51,19.88,1-2.28,1.8-4.68,3.04-6.82,3.08-5.29,5.97-10.77,9.66-15.63,6.51-8.57,15.74-11.69,26.27-11.38,2.71.08,5.41.33,8.47.53-3.27,11.88-9.18,21.2-20.36,25.9-9.66,4.06-19.66,7.31-28.47,13.21-.58.39-1.88.24-2.55-.15-8.69-5.07-18.07-8.52-27.38-12.24-11.7-4.67-17.84-14.36-21.3-26.42,5.31-1.03,10.45-1.03,15.58-.31,9.14,1.27,16.42,5.93,21.45,13.48,3.85,5.79,6.82,12.16,10.15,18.29.42.78.71,1.64,1.67,2.34,0-7.23.06-14.46-.09-21.69-.02-.82-1.09-1.95-1.94-2.36-6.96-3.36-13.79-7.13-21.04-9.71-12.54-4.46-20.76-12.72-24.87-25.25-.32-.97-.52-1.97-.81-3.1,15.52-2.38,28.73.97,37.75,14.48,3.6,5.39,6.26,11.41,9.33,17.15.38.71.65,1.49,1.54,2.19,0-1.25,0-2.5,0-3.75.02-6.16-.08-12.32.11-18.47.06-2.05-.67-3.18-2.39-3.97-6.94-3.17-13.69-6.89-20.86-9.42C12.74,49.73,4.75,41.04.84,28.25c-.16-.53-.2-1.09-.36-2,10.69-1.41,20.88-1.14,29.67,5.97,7.97,6.44,12.54,15.26,16.53,24.44.41.95.78,1.93,1.18,2.88.02.04.18.02.4.04v-25.65c-5.43-.69-9.83-3.11-12.89-7.72-2.17-3.27-3.18-6.91-2.81-10.78C33.38,6.79,39.93.5,48.37.03c8.04-.45,15.23,4.87,17,12.58,2.21,9.63-2.07,16.44-13.45,21.34Zm10.67-17.04c.01-7.62-5.99-13.88-13.23-13.79-7.44.08-13.47,6.14-13.55,13.59-.07,7.41,6.04,13.95,13.14,14.05,7.28.1,13.62-6.33,13.63-13.84Z"/><path class="cls-1" d="m56.82,17.13c-.07,4.34-3.49,7.74-7.78,7.73-4.05-.01-7.55-3.83-7.44-8.11.11-4.19,3.57-7.58,7.67-7.51,4.33.07,7.62,3.5,7.55,7.89Z"/></svg>