<?xml version="1.0" encoding="UTF-8"?>
<svg id="Layer_1" xmlns="http://www.w3.org/2000/svg" viewBox="0 0 131.53 165.75">
    <defs>
        <style>
            .cls-1 {
                stroke-width: 0px;
            }
        </style>
    </defs>
    <path class="cls-1"
        d="m130.4,75.17C122.43,30.67,74.12,7.38,34.25,28.76,9.95,41.79-3.73,68.45.89,93.76c6.3,34.5,36.71,57.54,71.95,54.53,31.35-2.68,57.56-30.26,58.69-61.42-.36-3.9-.44-7.85-1.13-11.69Zm-23.97,29.99c-.96-.46-2.21-.68-2.8-1.43-1.34-1.67-1.49-4.96-5.04-2.98-.24.13-1.18-.95-1.77-1.49-1.97-1.81-3.93-3.63-5.9-5.45-.3.17-.61.34-.91.51.02.34.03.68.04,1.02l-1.09,1.92-4.84-4.91c-.32-1.05-.61-2.1-.87-3.17-.8-3.36-2.7-4.44-6.42-4.23l.77,5.13c-.31.83-.65,1.66-.45,2.34.53,1.8,1.07,3.6,1.61,5.4l1.34,8.96c-1.2-3.1-2.39-6.21-3.6-9.31-.1-.25-.43-.42-.68-.61.38,2.12.76,4.24,1.14,6.36-.1.12-.2.25-.31.37.07-.14.13-.28.2-.42-1.17-1.34-2.36-2.69-3.55-4.03,1.01,3.18,2.02,6.37,3.04,9.55,1.7,3.77,3.4,7.55,5.09,11.32-1.72-3.02-3.45-6.03-5.18-9.03-.12-.17-.24-.35-.36-.52-.08.18-.16.37-.25.55-.23-.57-.47-1.15-.71-1.72-.22-.49-.44-.97-.66-1.46-.22-.49-.45-.98-.67-1.48-.23-.48-.45-.96-.68-1.44-.23-.49-.45-.97-.68-1.46-2.12-3.15-4.24-6.3-6.36-9.45-.12.16-.26.32-.39.47-.81-2.31-1.61-4.63-2.42-6.94-.25.03-.49.06-.74.09.35,3.07.48,6.18,1.11,9.19.51,2.45,1.08,4.89,1.66,7.32-2.06-2.48-3.4-4.1-3.4-4.1l2.13,8.2c.3,1.61.54,2.9.78,4.16-1.18-1.8-2.36-3.61-3.79-5.79.14,1.24.24,2.14.35,3.03-.15.05-.31.1-.46.14-.54-1.33-1.08-2.65-1.62-3.98-.23.07-.46.13-.68.2,1.69,5.98,3.4,11.95,5.05,17.94.32,1.15.47,2.35.67,3.54-1.15-2.59-2.37-5.17-3.44-7.78-.15-.07-.28-.2-.38-.39-.92-1.95-1.56-4.01-2.13-6.08-.5-1.84-.95-3.7-1.53-5.53-.57-1.8-1.34-3.53-2.13-5.24-1.07-2.32-2.2-4.64-3.09-7.05-2.03,1.2-1.96,3.52-1.47,6.05,1.34,6.97,2.68,13.93,3.67,21.02l-7.28-26.66s-.66,18.85-.65,19.57c-.25.02-.51.05-.76.07-.48-3.57-.96-7.14-1.54-11.5.07,3.65.12,6.53.18,9.42-.16.04-.33.08-.49.12-.35-1.54-.69-3.07-1.08-4.77-.18,1.03-.34,2.01-.51,2.99-.13.02-.26.03-.4.05-.72-4.16-1.45-8.33-2.17-12.49-.21.02-.42.04-.62.06l-.25,7.66-1.46-4.62-6.53-16.46-6.93,11.73c-.54-2.29-1.21-5.15-1.88-8-.25,0-.5,0-.75,0-.49,1.81-.97,3.62-1.46,5.44-.21-.04-.43-.08-.64-.12l.19-5.65c-.22-.05-.45-.09-.67-.14-.7,2.95-1.4,5.89-2.34,9.86l.3-8.98c-.16-.04-.31-.08-.47-.13-.29,1.59-.57,3.18-.94,5.24-.91-2.11-1.66-3.85-2.58-5.99-1.04,2.99-1.98,5.66-3.23,9.26-.98-3.6-1.69-6.21-2.44-8.99-.29-1.06-.65-2.65-.96-4.02.25-.39.53-.71.89-.91,9.48-5.34,17.99-11.85,25.57-19.63,1.58-1.62,3.02-3.37,4.62-5.17,1.51.61,3.04,1.23,5.13,2.08-1.52,1.58-2.86,2.97-4.19,4.36l.26.25c.39.96.78,1.93,1.17,2.89,1.34,3.31,2.68,6.61,4.02,9.92-1.19-4.29-2.38-8.58-3.57-12.87.14,0,.29,0,.43,0,3.01,5.72,6.02,11.44,9.03,17.16-1.31-4.13-2.63-8.25-3.93-12.39-.14-.44-.13-.92-.16-1.18,2.75,4.52,5.58,9.18,8.41,13.84.35-.2.71-.39,1.06-.59-1.8-5.77-3.6-11.55-5.4-17.32.49-.32.98-.64,1.46-.96,2.18,2.22,4.35,4.44,6.46,6.58-2.42-8.43-10.65-9.71-18.21-13.34,5.33-4.69,10.1-8.89,15.24-13.42.15,1.49.24,2.29.33,3.16.25-.08.52-.1.54-.18.49-2,1.39-2.9,3.78-2.64,1.5.16,3.15-1.06,4.85-1.71,2.77,5.19-3.47,8.16-3.59,13.26.58-.64.9-.95,1.16-1.3.27-.37.49-.78.98-1.6,1.29,2.97,2.45,5.62,3.6,8.25-.31-1.65-.61-3.31-.88-4.98-.31-1.92-.59-3.85-.04-5.94,2.15,5.99,4.31,11.98,6.46,17.96-.2-1.81-.27-3.64-.64-5.41-.65-3.13-1.49-6.22-1.88-9.41,2.99,6.46,5.99,12.92,8.98,19.38-1.08-3.73-2.15-7.39-2.94-10.14,5.59,7.79,11.75,16.38,17.92,24.97-.01-.5-.02-1.01-.04-1.51-.15-.61-.3-1.23-.45-1.84.21.13.43.27.65.4l.05-1.37,14.1,20.41c-.03.21-.06.42-.07.61Zm-14.97-19.94c.03-.07.07-.14.1-.21.03.02.06.04.09.06-.06.05-.13.1-.19.15Zm34.71,2.78c-6.56-2.79-13.28-4.87-19.16-8.35-6.65-3.94-12.94-8.72-18.7-13.9-.82-.73-1.62-1.48-2.42-2.22.85-.15,1.7-.39,2.55-.72,4.03-1.53,6.33-5.54,6.3-10.35-.03-4.93-2.64-7.96-7.83-10.04,3,4.24,4.46,8.24,2.28,12.54-1.48,2.91-3.56,4.9-6.43,5.62-6.13-5.88-12.01-12.02-18.06-17.99-.4-.4-1.21-.99-1.46-.84-3.6,2.08-8.29.02-11.61,3.16-3.92,3.7-7.79,7.5-11.97,10.89-10.68,8.67-21.51,17.15-32.3,25.68-.61.48-1.44.7-2.67,1.28,1.97-22.06,11.88-38.7,30.83-49.05,21.74-11.87,43.68-11.15,64.44,2.52,20.08,13.21,27.62,35.41,26.21,51.78Z" />
    <path class="cls-1"
        d="m6.93,47.63l.76.62c.56-.75,1.13-1.49,1.72-2.22.61-.74,1.25-1.49,1.93-2.24l-.76-.62c-.85,1.04-1.56,1.26-2.27.69-.2-.17-.67-.7-1.09-1.51l-.46-.91,3.41-4.16,1.29.43c.88.29,1.47.59,1.71.79.59.49.31,1.03-.58,2.22l.76.62c.85-1.11,1.69-2.18,2.56-3.24.87-1.06,1.77-2.12,2.69-3.17l-.76-.62c-.96,1.02-1.74,1.06-3.02.66L.88,30.54l-.76.93,6.88,13.11c.59,1.14.6,2.07-.07,3.04Zm-3.63-12.65l5.66,1.91-2.8,3.42-2.87-5.33Z" />
    <path class="cls-1"
        d="m14.54,19.49l5.42,8.47c1.32,2.06,1.6,3.03.07,4.06l.53.83c.89-.66,1.65-1.17,2.27-1.57.46-.3,1.28-.76,2.47-1.44l-.53-.83c-1.61.92-2.43.3-3.74-1.74l-4.32-6.75,11.03,7.7.95-.61-2.39-12.86,4.75,7.42c.93,1.46,1.08,1.9-.54,3.17l.52.81c1.23-.88,2.25-1.56,3.06-2.08.99-.63,2.27-1.4,3.84-2.32l-.52-.81c-1.66.98-2.3.82-3.15-.52l-5.28-8.25c-.97-1.52-1-2.18.71-3.3l-.5-.79c-1.09.75-2.05,1.43-2.96,2.01-.63.4-1.27.78-1.92,1.14l2.28,11.8-9.98-6.86c-.92.65-1.84,1.27-2.77,1.86-.73.47-1.37.88-2,1.2l.48.75c.9-.52,1.6-.71,2.23-.49Z" />
    <path class="cls-1"
        d="m43.1,20.18c.93-.24,1.89-.46,2.88-.67l-.25-.95c-1.3.33-2.01.1-2.24-.79-.07-.26-.12-.96.02-1.86l.16-1.01,5.2-1.34.78,1.11c.54.75.84,1.34.92,1.65.19.74-.36,1.01-1.78,1.45l.25.95c1.33-.39,2.65-.76,3.98-1.1,1.32-.34,2.68-.67,4.04-.97l-.25-.95c-1.37.25-2.03-.17-2.83-1.25l-8.62-11.8-1.16.3-2.2,14.64c-.19,1.26-.74,2.03-1.86,2.41l.25.95c.89-.28,1.79-.54,2.7-.77Zm1.6-12.53l3.44,4.89-4.28,1.1.83-5.99Z" />
    <path class="cls-1"
        d="m65.48,16.52l.06-.98c-1.84-.21-2.14-1.19-1.98-3.61l.51-8,4.34,12.73,1.13.07,5.67-11.78-.56,8.79c-.11,1.72-.26,2.17-2.3,2.24l-.06.96c1.51.02,2.74.08,3.69.14,1.17.07,2.66.22,4.47.4l.06-.96c-1.91-.19-2.34-.7-2.24-2.28l.62-9.77c.11-1.8.48-2.35,2.52-2.25l.06-.93c-1.32-.04-2.5-.06-3.58-.13-.74-.05-1.48-.12-2.22-.21l-5.13,10.86-3.99-11.43c-1.13-.02-2.23-.07-3.33-.14-.86-.05-1.63-.1-2.32-.22l-.06.89c1.03.11,1.71.37,2.08.92l-.63,10.04c-.15,2.44-.5,3.38-2.35,3.31l-.06.98c1.11,0,2.02.03,2.76.08.55.04,1.48.14,2.84.3Z" />
    <path class="cls-1"
        d="m92.2,21.83l.32-.91c-1.7-.67-1.95-1.32-1.38-2.97l3.21-9.2c.51-1.45,1.18-1.85,2.61-1.35l.25.09.32-.93c-1.42-.45-2.76-.89-4.01-1.33-1.18-.41-2.51-.9-3.96-1.46l-.32.93.23.08c1.65.58,1.76,1.15,1.22,2.69l-3.21,9.2c-.61,1.74-1.03,2.08-2.93,1.47l-.32.91c1.58.5,2.92.95,4.01,1.32.84.29,2.17.78,3.96,1.46Z" />
    <path class="cls-1"
        d="m106.29,29.87l.54-.83c-1.57-1.02-1.75-1.71-.81-3.16l1.87-2.88,7.66-3.7c.88-.43,1.52-.44,2.27-.1l.51-.79c-.92-.57-1.72-1.06-2.36-1.47-.72-.47-1.43-.93-2.11-1.43l-.51.79c1.02.72,1.31,1.2.86,1.9-.31.48-1,.92-2.04,1.42l-4.12,1.99.37-4.88c.1-1.22.2-1.99.42-2.33.34-.52.95-.41,1.99.24l.51-.79c-1.15-.69-2.29-1.4-3.44-2.15-.99-.64-2.02-1.34-3.16-2.14l-.5.76c.47.42.76.81.87,1.22.05.23.1.81.03,1.76l-.56,7.88-1.76,2.72c-.9,1.39-1.54,1.49-3.12.49l-.54.83c1.07.61,2.27,1.39,3.68,2.3,1.31.85,2.46,1.63,3.46,2.33Z" />
    <path class="cls-1"
        d="m110.77,31.66l-.73.67c.67.66,1.32,1.33,1.95,2.02.65.71,1.3,1.45,1.94,2.22l.72-.67c-.91-.99-1.03-1.73-.36-2.34.19-.18.79-.56,1.65-.86l.97-.33,3.63,3.96-.61,1.21c-.41.83-.79,1.38-1.02,1.59-.57.52-1.06.16-2.12-.89l-.72.66c.98.99,1.92,1.98,2.84,2.99.93,1.01,1.85,2.05,2.75,3.11l.73-.67c-.87-1.09-.8-1.87-.22-3.08l6.36-13.16-.81-.88-13.95,4.95c-1.21.42-2.14.3-3-.5Zm13.04-1.8l-2.69,5.34-2.98-3.25,5.68-2.08Z" />
    <path class="cls-1"
        d="m30.78,146.58c-.88-.48-1.77-.99-2.66-1.54l-.28.51.11.06c.87.47.95.96.44,1.89l-2.64,4.88c-.71,1.32-1.07,1.66-2.18,1.06l-.3.55c.75.32,1.49.72,2.24,1.13l.78.42c1.24.67,2.85,1.54,4.8,2.67l1.45-2.68-.49-.26c-1.12,1.37-2.03,1.46-3.58.62-1.06-.57-1.31-1.17-.8-2.11l1.28-2.36.17.09c1.08.59,1.33,1.18.92,2.41l.53.29c.26-.58.56-1.2.93-1.87.31-.58.64-1.15,1-1.69l-.55-.3c-.81.99-1.39,1.16-2.44.59l-.23-.12,1.57-2.9c.21-.38.3-.37.96,0,1.7.92,2.26,1.46,1.81,3.09l.54.29,1.25-2.31c-2.15-1.08-3.69-1.89-4.62-2.4Z" />
    <path class="cls-1"
        d="m43.85,152.88c-.46-.77-1.11-1.22-2.04-1.55-1.71-.61-3.23.05-3.8,1.66-.55,1.57.09,2.67,1.64,4.14,1.06,1.01,1.63,1.61,1.29,2.56-.33.93-1.19,1.3-2.27.92-1.26-.45-1.79-1.59-1.59-3.41l-.65-.23c-.14.48-.32,1.03-.53,1.64-.17.47-.34.92-.53,1.36l.66.24.42-.63c.47.93,1.17,1.45,2.22,1.82,2.05.73,3.8,0,4.44-1.82.62-1.75-.32-2.87-2.14-4.62-.85-.83-1.36-1.29-1.07-2.1.26-.73.99-1.08,1.85-.78,1.17.42,1.82,1.5,1.63,2.95l.64.23c.3-.98.6-1.87.88-2.68l-.66-.24-.38.55Z" />
    <path class="cls-1"
        d="m48.21,153.69l-.63,2.83.59.11c.53-1.52,1.28-1.87,2.89-1.58.19.03.38.07.6.12l-1.33,7.33c-.17.93-.47,1.1-1.67.95l-.11.61c1.2.17,2.17.33,2.85.45.78.14,1.61.31,2.47.51l.11-.61c-1.19-.25-1.47-.56-1.3-1.49l1.33-7.32c.25.03.49.06.71.1,1.52.28,2.12.93,2.09,2.5l.58.1.38-2.86c-1.71-.26-3.61-.59-5.73-.97-1.37-.25-2.66-.5-3.84-.77Z" />
    <path class="cls-1"
        d="m59.75,163.27c-.7-.05-1.3.46-1.35,1.15-.05.69.47,1.28,1.16,1.34.7.05,1.28-.47,1.34-1.15.05-.69-.44-1.28-1.15-1.33Z" />
    <path class="cls-1"
        d="m77.18,163.3l-.94-7.27c-.03-.25-.07-.67-.12-1.25l-.52.07c-.77.55-1.77.92-3.02,1.22l.07.54.21-.03c.98-.13,1.22-.04,1.32.75l.8,6.23c.12.97-.07,1.19-1.26,1.34l.08.58c.84-.14,1.69-.26,2.54-.37.64-.08,1.47-.17,2.5-.28l-.08-.58c-1.23.16-1.47-.04-1.59-.95Z" />
    <path class="cls-1"
        d="m84.88,152.88c-1.98.56-3.02,2.45-2.48,4.39.54,1.92,2.04,2.73,3.69,2.27.62-.17,1.1-.51,1.53-1.04.65,2.47.66,3.62-.5,3.94-.49.14-.66-.3-1.08-.68-.36-.34-.67-.48-1.06-.37-.48.13-.75.59-.62,1.05.22.79,1.24,1.19,2.55.82,2.6-.73,3.58-3.28,2.57-6.86-.77-2.76-2.62-4.08-4.62-3.52Zm1.49,5.67c-.9.25-1.32-.49-1.8-2.19-.48-1.72-.44-2.6.47-2.86.87-.24,1.45.5,1.93,2.2.1.36.25.96.46,1.79-.07.49-.47.89-1.06,1.06Z" />
    <path class="cls-1"
        d="m94.48,149.44c-1.88.83-2.63,2.86-1.82,4.7.81,1.82,2.42,2.4,3.98,1.71.59-.26,1.02-.67,1.37-1.25.99,2.35,1.17,3.48.08,3.97-.47.21-.7-.2-1.16-.52-.4-.28-.73-.38-1.1-.22-.45.2-.66.69-.47,1.13.34.75,1.4,1,2.64.45,2.47-1.1,3.07-3.76,1.56-7.16-1.16-2.62-3.18-3.65-5.07-2.81Zm2.29,5.4c-.85.38-1.38-.29-2.1-1.91-.73-1.63-.81-2.51.06-2.9.82-.37,1.5.28,2.22,1.9.15.34.39.91.71,1.7,0,.49-.33.95-.89,1.2Z" />
    <path class="cls-1"
        d="m106.1,147.41c-.52.33-.89.81-1.17,1.48-1.32-2.18-1.66-3.28-.65-3.92.43-.27.72.1,1.23.34.44.22.78.27,1.12.06.42-.26.56-.78.3-1.18-.45-.71-1.55-.8-2.79-.01-2.15,1.35-2.37,4.14-.4,7.26,1.53,2.42,3.68,3.16,5.43,2.06,1.74-1.1,2.21-3.19,1.06-5.01-.99-1.56-2.72-1.96-4.12-1.07Zm2.72,5.52c-.76.48-1.52-.05-2.47-1.55-.2-.32-.5-.85-.93-1.59-.06-.49.18-1.02.62-1.3.84-.53,1.48.06,2.43,1.57.95,1.51,1.15,2.36.35,2.87Z" />
</svg>