<?xml version="1.0" encoding="UTF-8"?>
<svg id="Layer_1" xmlns="http://www.w3.org/2000/svg" viewBox="0 0 280.21 139.36">
    <defs>
        <style>
            .cls-1 {
                stroke-width: 0px;
            }
        </style>
    </defs>
    <path class="cls-1"
        d="m175.31,105.14c.08-19.24-15.81-34.94-35.43-35.02-19.26-.07-34.91,15.32-34.98,34.41-.07,19.14,15.57,34.78,34.83,34.83,10.54.03,19.98-4.34,26.48-11.33h0s1.24-1.22,2.44-2.94c4.17-5.61,6.63-12.49,6.66-19.96Zm-27.43,13.38c.43-.06.88,0,1.32.02-6.11,4.18-15.96,3.67-22.33-1.19-1.21-.92-2.37-1.91-3.55-2.86.09-.16.18-.32.26-.48,1.15.18,2.3.35,3.44.53.04-.14.08-.29.12-.43-1-.34-2.06-1.08-2.99-.94-2.53.37-2.79-1.58-3.68-2.95.16-.17.31-.35.32-.33,2.43,1.64,5.17.54,7.74.85,2.06.25,2.27.36,3.87,3.25-1.49-.11-2.85-.21-4.21-.31-.02.24-.04.48-.06.71,1.23.08,2.45.15,3.68.23.69.05,1.58-.15,2.05.2,4.18,3.12,8.79,4.47,13.99,3.71Zm-7.97-39.17c-3.99,1.89-6.92,4.39-9.14,7.73-2.24,3.38-3.24,7.15-3.64,11.46h-7.86c-.43-8.46,10.77-19.11,20.63-19.2Zm-25.51,21.08c-1.51.3-3,.66-4.5.99-.06-.28-.12-.56-.18-.84,2.03.34,3.76-.03,5.2-1.63.35-.39,1.53-.55,1.95-.26,1.82,1.24,3.74.88,5.7.75,2.23-.15,4.53-.55,6.67-.15,2.12.39,4.08,1.64,6.04,2.7-1.27-.18-2.53-.39-3.8-.55-2.9-.36-5.81-.72-8.71-1.03-.46-.05-1.01-.02-1.4.19-1.74.93-3.29.86-4.92-.36-.41-.31-1.36.06-2.05.2Zm4.62,4.93c1.99.77,3.58.15,5.11-1.24.57-.52,1.78-.35,2.78-.51.79,2.07,1.53,4.01,2.37,6.23-3.13-.87-5.86-1.82-8.67-2.32-1.35-.24-1.77-.62-1.59-2.15Zm36.12,27.06c-.33-.07-.69-.05-1-.17-5.43-2.05-10.77-1.66-16.41-.45-3.71.79-7.79-.24-11.71-.31-1.93-.03-3.87.26-5.81.4-.21-.06-.41-.11-.62-.17.02-.04.04-.08.06-.12.19.1.37.19.56.29.54-.37,1.06-1.03,1.62-1.08,2.43-.2,4.87-.18,7.3-.32,3.23-.19,6.59.04,9.65-.8,4.53-1.25,8.86-1.74,13.41-.3,3.34,1.05,6.73.61,10.04-.39.62-.19,1.26-.3,2.22-.52-2.37,3.78-5.49,4.72-9.31,3.93Z" />
    <path class="cls-1"
        d="m0,62.38c-.16-14.86,5.67-35.97,20.82-41.89,6.06-2.36,11.17-.92,15.16,4.33,3.75,4.94,5.67,12.28,5.67,21.87s-1.99,18.35-5.95,25.9c-4.07,7.77-9.14,12.55-15.38,14.86C4.7,93.23.13,73.73,0,62.38Zm21.04,20.14c9.08-2.3,11.12-22.63,10.65-32.45-.43-8.85-2.05-27.11-11.2-24.8-9.24,2.33-10.95,22.82-10.62,33.2.27,8.5,1.69,26.45,11.16,24.05Z" />
    <path class="cls-1"
        d="m45.13,73.86c4.63-1.36,5.69-3.52,5.69-10.83,0-13.11,0-26.21,0-39.32,0-6.27-.94-7.47-5.69-6.17,0-1.52,0-2.28,0-3.8,2.87-.65,5.24-1.31,7.18-1.84,3.54-.96,7.3-2.2,11.4-3.17,10.25-2.41,15.25,1.72,15.25,12.93,0,8.45-3.28,14.92-9.27,17.92,1.55.8,2.88,3.94,4.94,8.37,2.15,4.73,3.23,7.11,5.38,11.88,1.55,3.51,3.28,5.3,5.17,5.36v3.51c-1.28.02-3.67.33-7.11.99-1.44.27-2.89.56-4.27,1.03-3.57-8.05-5.36-12.05-8.93-20-1.83-4.14-2.94-6.44-5.04-5.92-.17.04-.33.18-.55.23,0,6.53,0,9.8,0,16.34,0,6.65,1.22,8.32,5.15,7.4.11-.03.17-.04.28-.06,0,1.6,0,2.39,0,3.99-6.15,1.23-10.24,2.25-12.28,2.8-2.1.57-4.53,1.25-7.29,2.34,0-1.6,0-2.39,0-3.99Zm16.03-33.55c5.76-1.4,8.42-6.02,8.42-15.14,0-9.4-2.5-12.88-7.81-11.6-2.05.49-2.49,1.18-2.49,4.31,0,9.12,0,13.68,0,22.79.66-.07,1.33-.23,1.88-.37Z" />
    <path class="cls-1"
        d="m86.18,64.55c3.89-1.12,4.89-2.86,4.89-8.46,0-13.61,0-27.22,0-40.84,0-5.89-.78-7.22-4.89-7.02v-3.7c2.28-.09,4.34-.41,6.06-.66,2.34-.34,5.51-.98,9.57-1.45,11.75-1.37,17.01,3.57,17.38,15.43.32,10.17-6.25,18.56-16.6,19.43-.81.07-1.78.21-2.73.23,0,6.76,0,10.14,0,16.9,0,6.17,1.11,8.01,5.29,7.56.13-.01.2-.02.33-.04,0,1.56,0,2.34,0,3.89-3.34.16-7.57.56-12.8,1.32-2.56.37-4.73.71-6.51,1.29v-3.89Zm15.19-31.78c5.9-.7,8.3-4.77,8.3-14.46,0-7.98-2.4-11.96-6.85-11.45-2.23.25-2.95.83-2.95,2.91,0,9.23,0,13.85,0,23.08.5.03,1-.03,1.5-.09Z" />
    <path class="cls-1"
        d="m122.82,60.66c4.57-.43,5.19-2.23,5.19-9.54,0-12.85,0-25.7,0-38.56,0-6.36-.45-8.47-4.85-8.24-.13,0-.2.01-.33.02,0-1.56,0-2.34,0-3.89,3.74,0,6.91-.02,9.59-.08,2.62-.06,5.86-.2,9.65-.37v3.89c-.25,0-.37,0-.61,0-3.4-.01-4.57,2.39-4.57,8.47v16.43c6.6-.07,9.91-.01,16.51.25V12.61c0-6.46-.39-8.41-5.19-8.62V.09c4.96.41,8.98.61,12.1.81,2.73.17,5.13.35,7.13.23v3.89c-.09,0-.13-.01-.22-.02-3.96-.33-4.96,1.91-4.96,8.08v38.56c0,6.84,1.06,9.26,5.18,9.7v3.8c-4.18-.54-7.41-.83-9.64-.95-2.51-.14-5.69-.19-9.59-.09v-3.8c4.57-.08,5.19-1.83,5.19-9.14v-17.28c-6.6-.27-9.9-.32-16.51-.25v17.28c0,6.84,1.12,8.99,5.19,9.3v3.8c-4.41-.22-7.64-.25-9.65-.2-2.62.06-5.8.26-9.59.65,0-1.52,0-2.28,0-3.8Z" />
    <path class="cls-1"
        d="m171.44,61.7c4.68.45,5.24-2.4,5.24-11.9V14.66c0-6.74-1.11-9.36-4.79-9.71-.18-.02-.27-.03-.45-.04,0-1.48,0-2.22,0-3.7,3.9.75,7.69,1.37,11.42,1.86,3.95.52,10.41,1.31,19.29,2.52v16.62c-.91-.17-1.37-.26-2.28-.42-1.39-10.7-4.16-12.59-11.34-13.65-2.78-.41-3.12-.26-3.12,2.5v20.89c.38.05.57.08.95.13,4.39.62,6.01-1.76,6.9-9.59.93.15,1.4.23,2.33.39-.22,4.05-.28,8.21-.28,12.39,0,4.84.11,9.23.28,13.25-.89-.15-1.33-.22-2.22-.37-.83-8.21-2.67-11.09-7.23-11.73-.29-.04-.43-.06-.72-.1v17c0,6.74,1.89,9.54,6.34,10.25,6.5,1.03,9.33-1.62,10.56-12.41.82.16,1.23.24,2.05.4v19.28c-8.32-2.02-15.11-3.05-20.34-3.75-1.31-.18-1.97-.26-3.28-.42-3.17-.39-6.29-.73-9.3-.55,0-1.6,0-2.39,0-3.99Z" />
    <path class="cls-1"
        d="m213.12,22.97c0-8.26-.61-10.81-5.21-12.24v-3.7c3.33.88,6.49,1.69,9.31,2.36,3.05.72,6.37,1.46,9.96,2.14v3.8c-4.53-.74-5.36,1.17-5.36,9.05v24.69c0,14.05,2.33,20.55,9.51,22.57,4.2,1.18,7.42-.22,8.99-3.61,1.61-3.47,1.87-8.63,1.87-15.84v-21.84c0-7.5-1.1-10.53-5.13-12.41v-3.51c2.04.8,4.19,1.56,6.5,2.3,2.7.87,4.95,1.53,6.6,1.9v3.7c-3.85-.56-5,1.65-5,8.97v21.84c0,8.26-.38,14.41-2.42,18.88-2.46,5.38-7.11,7.35-13.4,5.62-5.8-1.6-10.02-4.89-13.05-10.92-2.38-4.73-3.16-11.27-3.16-20.57v-23.17Z" />
    <path class="cls-1"
        d="m254.23,74.56c0-4.08-.05-7.81-.16-10.98,1.01.36,1.52.54,2.52.91,1.54,11.86,4.77,18.73,9.64,20.65,4.16,1.64,6.67-1.29,6.67-7.55s-2.66-10.06-7.54-15.58c-6.2-7.02-10.78-15.63-10.69-25.27.11-10.72,4.45-16.4,11.07-13.8,3.61,1.42,6.4,3.9,8.91,8.57.26-1.52.39-2.28.65-3.81,1.03.44,1.54.65,2.56,1.1,0,5.41.05,11.42.22,17.95-.98-.43-1.47-.64-2.45-1.05-1.09-9.49-4.64-16.12-9.18-17.91-3.34-1.32-5.42,1.52-5.42,6.46,0,5.41,2.3,7.97,6.24,12.67,7.19,8,13.03,17.45,12.93,28.5-.1,12.05-5.11,17.92-13.04,14.76-4.05-1.61-7.12-4.37-9.86-9.93-.26,1.77-.39,2.65-.66,4.41-1.03-.37-1.55-.56-2.58-.93.11-3,.16-6.02.16-9.15Z" />
</svg>