<?xml version="1.0" encoding="UTF-8"?>
<svg xmlns="http://www.w3.org/2000/svg" version="1.1" viewBox="0 0 72 72">
  <defs>
    <style>
      .cls-1 {
        fill: none;
      }

      .cls-2 {
        fill: #faf4ee;
      }
    </style>
  </defs>
  <!-- Generator: Adobe Illustrator 28.6.0, SVG Export Plug-In . SVG Version: 1.2.0 Build 709)  -->
  <g>
    <g id="Layer_1">
      <g>
        <path class="cls-1" d="M3.6,36c0,10.8,4.9,20.3,12.4,26.1-6.4-6.6-10.4-15.8-10.4-26.1s4-19.6,10.4-26.1c-7.5,5.8-12.4,15.3-12.4,26.1Z"/>
        <path class="cls-2" d="M16.1,62.1c-7.5-5.8-12.4-15.3-12.4-26.1s4.9-20.3,12.4-26.1C21.4,4.4,28.3.9,36,.1,35.1,0,34.1,0,33.1,0,14.8,0,0,16.1,0,36s14.8,36,33.1,36,1.9,0,2.9-.1c-7.7-.7-14.6-4.3-19.9-9.7Z"/>
        <path class="cls-2" d="M16.1,62.1c4.8,3.7,10.7,5.9,17.1,5.9,16.3,0,29.5-14.4,29.5-32.1S49.4,3.9,33.1,3.9s-12.3,2.2-17.1,5.9c-6.4,6.6-10.4,15.8-10.4,26.1s4,19.6,10.4,26.1Z"/>
        <path class="cls-2" d="M38.9,0C37.9,0,36.9,0,36,.1c17,1.6,30.3,17,30.3,35.9s-13.3,34.3-30.3,35.9c.9,0,1.9.1,2.9.1,18.3,0,33.1-16.1,33.1-36S57.2,0,38.9,0Z"/>
      </g>
    </g>
  </g>
</svg>