<?xml version="1.0" encoding="UTF-8"?>
<svg xmlns="http://www.w3.org/2000/svg" version="1.1" viewBox="0 0 72 72.1">
  <defs>
    <style>
      .cls-1 {
        fill-rule: evenodd;
      }

      .cls-1, .cls-2 {
        fill: #faf4ee;
      }

      .cls-2 {
        stroke: #faf4ee;
        stroke-width: .2px;
      }
    </style>
  </defs>
  <!-- Generator: Adobe Illustrator 28.6.0, SVG Export Plug-In . SVG Version: 1.2.0 Build 709)  -->
  <g>
    <g id="Layer_1">
      <path class="cls-1" d="M72,65.4H19.4v-21.8h52.6v21.8ZM43.7,59.8c-2.7,0-4.9-2.4-4.9-5.3s2.2-5.3,4.9-5.3,4.9,2.4,4.9,5.3-2.2,5.3-4.9,5.3ZM25.5,54.5c0,2.9,2.2,5.3,4.9,5.3s4.9-2.4,4.9-5.3-2.2-5.3-4.9-5.3-4.9,2.4-4.9,5.3ZM56.9,59.8c-2.7,0-4.9-2.4-4.9-5.3s2.2-5.3,4.9-5.3,4.9,2.4,4.9,5.3-2.2,5.3-4.9,5.3Z"/>
      <path class="cls-1" d="M72,36.9H0V0s72,0,72,0v36.9ZM65.9,21.8h-22.2v8.4h22.2v-8.4ZM24.6,6.7h41.4v8.4H24.6V6.7Z"/>
      <path class="cls-2" d="M.1,37v6.5h1.9l10.1-6.5H.1Z"/>
      <path class="cls-2" d="M71.9,65.5v6.5h-1.9l-10.1-6.5h12Z"/>
    </g>
  </g>
</svg>